<svg width="1200" height="630" viewBox="0 0 1200 630" fill="none" xmlns="http://www.w3.org/2000/svg">
  <rect width="1200" height="630" fill="#F5F7FA"/>
  <rect x="64" y="64" width="1072" height="502" rx="28" fill="#FCFCFD" stroke="#DCEEFF" stroke-width="2"/>
  <rect x="90" y="90" width="76" height="76" rx="18" fill="#0F172A"/>
  <path d="M128 105c-12.7 0-23 10.3-23 23s10.3 23 23 23c7.4 0 14.1-3.5 18.3-9.3" stroke="#DCEEFF" stroke-width="5.5" stroke-linecap="round"/>
  <path d="M141 114h9v9" stroke="#2CB1A1" stroke-width="5.5" stroke-linecap="round" stroke-linejoin="round"/>
  <path d="M150 114l-13 13" stroke="#2CB1A1" stroke-width="5.5" stroke-linecap="round"/>
  <path d="M121 129l5 5 10-10" stroke="#FCFCFD" stroke-width="5" stroke-linecap="round" stroke-linejoin="round"/>
  <text x="190" y="142" fill="#0F172A" font-size="46" font-family="Inter, Arial, sans-serif" font-weight="700">Flowon</text>
  <text x="90" y="250" fill="#0F172A" font-size="62" font-family="Inter, Arial, sans-serif" font-weight="700">Palauta klinikan</text>
  <text x="90" y="318" fill="#0F172A" font-size="62" font-family="Inter, Arial, sans-serif" font-weight="700">menetetty liikevaihto</text>
  <text x="90" y="386" fill="#0F172A" font-size="62" font-family="Inter, Arial, sans-serif" font-weight="700">tekstiviestiautomaatiolla</text>
  <text x="90" y="450" fill="#1E293B" font-size="28" font-family="Inter, Arial, sans-serif" font-weight="400">Tuo potilaat takaisin jatkokäynneille ja täytä peruutusajat automaattisesti.</text>
  <rect x="90" y="486" width="258" height="54" rx="14" fill="#0F172A"/>
  <text x="127" y="521" fill="#FCFCFD" font-size="24" font-family="Inter, Arial, sans-serif" font-weight="600">Varaa ilmainen pilotti</text>
</svg>